<?xml version="1.0" encoding="us-ascii" standalone="no"?><svg xmlns="http://www.w3.org/2000/svg" xmlns:xlink="http://www.w3.org/1999/xlink" contentStyleType="text/css" height="898px" preserveAspectRatio="none" style="width:920px;height:898px;background:#FFFFFF;" version="1.1" viewBox="0 0 920 898" width="920px" zoomAndPan="magnify"><defs/><g><!--class Cliente--><g id="elem_Cliente"><rect codeLine="2" fill="#F1F1F1" height="153.6563" id="Cliente" rx="2.5" ry="2.5" style="stroke:#181818;stroke-width:0.5;" width="235" x="201" y="7"/><ellipse cx="292.25" cy="23" fill="#ADD1B2" rx="11" ry="11" style="stroke:#181818;stroke-width:1.0;"/><path d="M295.0156,18.875 Q295.1719,18.6563 295.3594,18.5469 Q295.5469,18.4375 295.7656,18.4375 Q296.1406,18.4375 296.375,18.7031 Q296.6094,18.9531 296.6094,19.5625 L296.6094,21.0156 Q296.6094,21.625 296.375,21.8906 Q296.1406,22.1563 295.7656,22.1563 Q295.4219,22.1563 295.2188,21.9531 Q295.0156,21.7656 294.9063,21.25 Q294.8594,20.8906 294.6719,20.7031 Q294.3438,20.3281 293.7344,20.1094 Q293.125,19.8906 292.5,19.8906 Q291.7344,19.8906 291.0938,20.2188 Q290.4688,20.5469 289.9688,21.2969 Q289.4844,22.0469 289.4844,23.0781 L289.4844,24.1719 Q289.4844,25.4063 290.375,26.2344 Q291.2656,27.0469 292.8594,27.0469 Q293.7969,27.0469 294.4531,26.7969 Q294.8438,26.6406 295.2656,26.2031 Q295.5313,25.9375 295.6719,25.8594 Q295.8281,25.7813 296.0313,25.7813 Q296.3594,25.7813 296.6094,26.0469 Q296.875,26.2969 296.875,26.6406 Q296.875,26.9844 296.5313,27.3906 Q296.0313,27.9688 295.2344,28.2969 Q294.1563,28.75 292.8594,28.75 Q291.3438,28.75 290.1406,28.125 Q289.1563,27.625 288.4688,26.5625 Q287.7813,25.4844 287.7813,24.2031 L287.7813,23.0469 Q287.7813,21.7188 288.3906,20.5781 Q289.0156,19.4219 290.1094,18.8125 Q291.2031,18.1875 292.4375,18.1875 Q293.1719,18.1875 293.8125,18.3594 Q294.4688,18.5156 295.0156,18.875 Z " fill="#000000"/><text fill="#000000" font-family="sans-serif" font-size="14" lengthAdjust="spacing" textLength="44" x="312.75" y="28.7285">Cliente</text><line style="stroke:#181818;stroke-width:0.5;" x1="202" x2="435" y1="39" y2="39"/><rect fill="none" height="6" style="stroke:#C82930;stroke-width:1.0;" width="6" x="209" y="50.3047"/><text fill="#000000" font-family="sans-serif" font-size="14" lengthAdjust="spacing" textLength="51" x="221" y="57.5332">id: Long</text><rect fill="none" height="6" style="stroke:#C82930;stroke-width:1.0;" width="6" x="209" y="67.9141"/><text fill="#000000" font-family="sans-serif" font-size="14" lengthAdjust="spacing" textLength="80" x="221" y="75.1426">nome: String</text><rect fill="none" height="6" style="stroke:#C82930;stroke-width:1.0;" width="6" x="209" y="85.5234"/><text fill="#000000" font-family="sans-serif" font-size="14" lengthAdjust="spacing" textLength="78" x="221" y="92.752">email: String</text><rect fill="none" height="6" style="stroke:#C82930;stroke-width:1.0;" width="6" x="209" y="103.1328"/><text fill="#000000" font-family="sans-serif" font-size="14" lengthAdjust="spacing" textLength="64" x="221" y="110.3613">cpf: String</text><line style="stroke:#181818;stroke-width:0.5;" x1="202" x2="435" y1="117.4375" y2="117.4375"/><ellipse cx="212" cy="131.7422" fill="#84BE84" rx="3" ry="3" style="stroke:#038048;stroke-width:1.0;"/><text fill="#000000" font-family="sans-serif" font-size="14" lengthAdjust="spacing" textLength="152" x="221" y="135.9707">realizarPedido(): Pedido</text><ellipse cx="212" cy="149.3516" fill="#84BE84" rx="3" ry="3" style="stroke:#038048;stroke-width:1.0;"/><text fill="#000000" font-family="sans-serif" font-size="14" lengthAdjust="spacing" textLength="209" x="221" y="153.5801">consultarPedidos(): List&lt;Pedido&gt;</text></g><!--class Pedido--><g id="elem_Pedido"><rect codeLine="11" fill="#F1F1F1" height="188.875" id="Pedido" rx="2.5" ry="2.5" style="stroke:#181818;stroke-width:0.5;" width="260" x="188.5" y="239"/><ellipse cx="292.25" cy="255" fill="#ADD1B2" rx="11" ry="11" style="stroke:#181818;stroke-width:1.0;"/><path d="M295.0156,250.875 Q295.1719,250.6563 295.3594,250.5469 Q295.5469,250.4375 295.7656,250.4375 Q296.1406,250.4375 296.375,250.7031 Q296.6094,250.9531 296.6094,251.5625 L296.6094,253.0156 Q296.6094,253.625 296.375,253.8906 Q296.1406,254.1563 295.7656,254.1563 Q295.4219,254.1563 295.2188,253.9531 Q295.0156,253.7656 294.9063,253.25 Q294.8594,252.8906 294.6719,252.7031 Q294.3438,252.3281 293.7344,252.1094 Q293.125,251.8906 292.5,251.8906 Q291.7344,251.8906 291.0938,252.2188 Q290.4688,252.5469 289.9688,253.2969 Q289.4844,254.0469 289.4844,255.0781 L289.4844,256.1719 Q289.4844,257.4063 290.375,258.2344 Q291.2656,259.0469 292.8594,259.0469 Q293.7969,259.0469 294.4531,258.7969 Q294.8438,258.6406 295.2656,258.2031 Q295.5313,257.9375 295.6719,257.8594 Q295.8281,257.7813 296.0313,257.7813 Q296.3594,257.7813 296.6094,258.0469 Q296.875,258.2969 296.875,258.6406 Q296.875,258.9844 296.5313,259.3906 Q296.0313,259.9688 295.2344,260.2969 Q294.1563,260.75 292.8594,260.75 Q291.3438,260.75 290.1406,260.125 Q289.1563,259.625 288.4688,258.5625 Q287.7813,257.4844 287.7813,256.2031 L287.7813,255.0469 Q287.7813,253.7188 288.3906,252.5781 Q289.0156,251.4219 290.1094,250.8125 Q291.2031,250.1875 292.4375,250.1875 Q293.1719,250.1875 293.8125,250.3594 Q294.4688,250.5156 295.0156,250.875 Z " fill="#000000"/><text fill="#000000" font-family="sans-serif" font-size="14" lengthAdjust="spacing" textLength="44" x="312.75" y="260.7285">Pedido</text><line style="stroke:#181818;stroke-width:0.5;" x1="189.5" x2="447.5" y1="271" y2="271"/><rect fill="none" height="6" style="stroke:#C82930;stroke-width:1.0;" width="6" x="196.5" y="282.3047"/><text fill="#000000" font-family="sans-serif" font-size="14" lengthAdjust="spacing" textLength="51" x="208.5" y="289.5332">id: Long</text><rect fill="none" height="6" style="stroke:#C82930;stroke-width:1.0;" width="6" x="196.5" y="299.9141"/><text fill="#000000" font-family="sans-serif" font-size="14" lengthAdjust="spacing" textLength="175" x="208.5" y="307.1426">dataPedido: LocalDateTime</text><rect fill="none" height="6" style="stroke:#C82930;stroke-width:1.0;" width="6" x="196.5" y="317.5234"/><text fill="#000000" font-family="sans-serif" font-size="14" lengthAdjust="spacing" textLength="83" x="208.5" y="324.752">status: String</text><rect fill="none" height="6" style="stroke:#C82930;stroke-width:1.0;" width="6" x="196.5" y="335.1328"/><text fill="#000000" font-family="sans-serif" font-size="14" lengthAdjust="spacing" textLength="141" x="208.5" y="342.3613">valorTotal: BigDecimal</text><line style="stroke:#181818;stroke-width:0.5;" x1="189.5" x2="447.5" y1="349.4375" y2="349.4375"/><ellipse cx="199.5" cy="363.7422" fill="#84BE84" rx="3" ry="3" style="stroke:#038048;stroke-width:1.0;"/><text fill="#000000" font-family="sans-serif" font-size="14" lengthAdjust="spacing" textLength="198" x="208.5" y="367.9707">adicionarItem(ItemPedido): void</text><ellipse cx="199.5" cy="381.3516" fill="#84BE84" rx="3" ry="3" style="stroke:#038048;stroke-width:1.0;"/><text fill="#000000" font-family="sans-serif" font-size="14" lengthAdjust="spacing" textLength="192" x="208.5" y="385.5801">removerItem(ItemPedido): void</text><ellipse cx="199.5" cy="398.9609" fill="#84BE84" rx="3" ry="3" style="stroke:#038048;stroke-width:1.0;"/><text fill="#000000" font-family="sans-serif" font-size="14" lengthAdjust="spacing" textLength="169" x="208.5" y="403.1895">calcularTotal(): BigDecimal</text><ellipse cx="199.5" cy="416.5703" fill="#84BE84" rx="3" ry="3" style="stroke:#038048;stroke-width:1.0;"/><text fill="#000000" font-family="sans-serif" font-size="14" lengthAdjust="spacing" textLength="234" x="208.5" y="420.7988">realizarPagamento(Pagamento): void</text></g><!--class ItemPedido--><g id="elem_ItemPedido"><rect codeLine="22" fill="#F1F1F1" height="118.4375" id="ItemPedido" rx="2.5" ry="2.5" style="stroke:#181818;stroke-width:0.5;" width="215" x="83" y="524"/><ellipse cx="151.25" cy="540" fill="#ADD1B2" rx="11" ry="11" style="stroke:#181818;stroke-width:1.0;"/><path d="M154.0156,535.875 Q154.1719,535.6563 154.3594,535.5469 Q154.5469,535.4375 154.7656,535.4375 Q155.1406,535.4375 155.375,535.7031 Q155.6094,535.9531 155.6094,536.5625 L155.6094,538.0156 Q155.6094,538.625 155.375,538.8906 Q155.1406,539.1563 154.7656,539.1563 Q154.4219,539.1563 154.2188,538.9531 Q154.0156,538.7656 153.9063,538.25 Q153.8594,537.8906 153.6719,537.7031 Q153.3438,537.3281 152.7344,537.1094 Q152.125,536.8906 151.5,536.8906 Q150.7344,536.8906 150.0938,537.2188 Q149.4688,537.5469 148.9688,538.2969 Q148.4844,539.0469 148.4844,540.0781 L148.4844,541.1719 Q148.4844,542.4063 149.375,543.2344 Q150.2656,544.0469 151.8594,544.0469 Q152.7969,544.0469 153.4531,543.7969 Q153.8438,543.6406 154.2656,543.2031 Q154.5313,542.9375 154.6719,542.8594 Q154.8281,542.7813 155.0313,542.7813 Q155.3594,542.7813 155.6094,543.0469 Q155.875,543.2969 155.875,543.6406 Q155.875,543.9844 155.5313,544.3906 Q155.0313,544.9688 154.2344,545.2969 Q153.1563,545.75 151.8594,545.75 Q150.3438,545.75 149.1406,545.125 Q148.1563,544.625 147.4688,543.5625 Q146.7813,542.4844 146.7813,541.2031 L146.7813,540.0469 Q146.7813,538.7188 147.3906,537.5781 Q148.0156,536.4219 149.1094,535.8125 Q150.2031,535.1875 151.4375,535.1875 Q152.1719,535.1875 152.8125,535.3594 Q153.4688,535.5156 154.0156,535.875 Z " fill="#000000"/><text fill="#000000" font-family="sans-serif" font-size="14" lengthAdjust="spacing" textLength="70" x="171.75" y="545.7285">ItemPedido</text><line style="stroke:#181818;stroke-width:0.5;" x1="84" x2="297" y1="556" y2="556"/><rect fill="none" height="6" style="stroke:#C82930;stroke-width:1.0;" width="6" x="91" y="567.3047"/><text fill="#000000" font-family="sans-serif" font-size="14" lengthAdjust="spacing" textLength="51" x="103" y="574.5332">id: Long</text><rect fill="none" height="6" style="stroke:#C82930;stroke-width:1.0;" width="6" x="91" y="584.9141"/><text fill="#000000" font-family="sans-serif" font-size="14" lengthAdjust="spacing" textLength="94" x="103" y="592.1426">quantidade: int</text><rect fill="none" height="6" style="stroke:#C82930;stroke-width:1.0;" width="6" x="91" y="602.5234"/><text fill="#000000" font-family="sans-serif" font-size="14" lengthAdjust="spacing" textLength="162" x="103" y="609.752">precoUnitario: BigDecimal</text><line style="stroke:#181818;stroke-width:0.5;" x1="84" x2="297" y1="616.8281" y2="616.8281"/><ellipse cx="94" cy="631.1328" fill="#84BE84" rx="3" ry="3" style="stroke:#038048;stroke-width:1.0;"/><text fill="#000000" font-family="sans-serif" font-size="14" lengthAdjust="spacing" textLength="189" x="103" y="635.3613">calcularSubtotal(): BigDecimal</text></g><!--class Produto--><g id="elem_Produto"><rect codeLine="29" fill="#F1F1F1" height="153.6563" id="Produto" rx="2.5" ry="2.5" style="stroke:#181818;stroke-width:0.5;" width="269" x="7" y="738"/><ellipse cx="112.25" cy="754" fill="#ADD1B2" rx="11" ry="11" style="stroke:#181818;stroke-width:1.0;"/><path d="M115.0156,749.875 Q115.1719,749.6563 115.3594,749.5469 Q115.5469,749.4375 115.7656,749.4375 Q116.1406,749.4375 116.375,749.7031 Q116.6094,749.9531 116.6094,750.5625 L116.6094,752.0156 Q116.6094,752.625 116.375,752.8906 Q116.1406,753.1563 115.7656,753.1563 Q115.4219,753.1563 115.2188,752.9531 Q115.0156,752.7656 114.9063,752.25 Q114.8594,751.8906 114.6719,751.7031 Q114.3438,751.3281 113.7344,751.1094 Q113.125,750.8906 112.5,750.8906 Q111.7344,750.8906 111.0938,751.2188 Q110.4688,751.5469 109.9688,752.2969 Q109.4844,753.0469 109.4844,754.0781 L109.4844,755.1719 Q109.4844,756.4063 110.375,757.2344 Q111.2656,758.0469 112.8594,758.0469 Q113.7969,758.0469 114.4531,757.7969 Q114.8438,757.6406 115.2656,757.2031 Q115.5313,756.9375 115.6719,756.8594 Q115.8281,756.7813 116.0313,756.7813 Q116.3594,756.7813 116.6094,757.0469 Q116.875,757.2969 116.875,757.6406 Q116.875,757.9844 116.5313,758.3906 Q116.0313,758.9688 115.2344,759.2969 Q114.1563,759.75 112.8594,759.75 Q111.3438,759.75 110.1406,759.125 Q109.1563,758.625 108.4688,757.5625 Q107.7813,756.4844 107.7813,755.2031 L107.7813,754.0469 Q107.7813,752.7188 108.3906,751.5781 Q109.0156,750.4219 110.1094,749.8125 Q111.2031,749.1875 112.4375,749.1875 Q113.1719,749.1875 113.8125,749.3594 Q114.4688,749.5156 115.0156,749.875 Z " fill="#000000"/><text fill="#000000" font-family="sans-serif" font-size="14" lengthAdjust="spacing" textLength="50" x="132.75" y="759.7285">Produto</text><line style="stroke:#181818;stroke-width:0.5;" x1="8" x2="275" y1="770" y2="770"/><rect fill="none" height="6" style="stroke:#C82930;stroke-width:1.0;" width="6" x="15" y="781.3047"/><text fill="#000000" font-family="sans-serif" font-size="14" lengthAdjust="spacing" textLength="51" x="27" y="788.5332">id: Long</text><rect fill="none" height="6" style="stroke:#C82930;stroke-width:1.0;" width="6" x="15" y="798.9141"/><text fill="#000000" font-family="sans-serif" font-size="14" lengthAdjust="spacing" textLength="80" x="27" y="806.1426">nome: String</text><rect fill="none" height="6" style="stroke:#C82930;stroke-width:1.0;" width="6" x="15" y="816.5234"/><text fill="#000000" font-family="sans-serif" font-size="14" lengthAdjust="spacing" textLength="106" x="27" y="823.752">descricao: String</text><rect fill="none" height="6" style="stroke:#C82930;stroke-width:1.0;" width="6" x="15" y="834.1328"/><text fill="#000000" font-family="sans-serif" font-size="14" lengthAdjust="spacing" textLength="114" x="27" y="841.3613">preco: BigDecimal</text><rect fill="none" height="6" style="stroke:#C82930;stroke-width:1.0;" width="6" x="15" y="851.7422"/><text fill="#000000" font-family="sans-serif" font-size="14" lengthAdjust="spacing" textLength="74" x="27" y="858.9707">estoque: int</text><line style="stroke:#181818;stroke-width:0.5;" x1="8" x2="275" y1="866.0469" y2="866.0469"/><ellipse cx="18" cy="880.3516" fill="#84BE84" rx="3" ry="3" style="stroke:#038048;stroke-width:1.0;"/><text fill="#000000" font-family="sans-serif" font-size="14" lengthAdjust="spacing" textLength="243" x="27" y="884.5801">atualizarEstoque(quantidade: int): void</text></g><!--class Pagamento--><g id="elem_Pagamento"><rect codeLine="38" fill="#F1F1F1" height="153.6563" id="Pagamento" rx="2.5" ry="2.5" style="stroke:#181818;stroke-width:0.5;" width="229" x="430" y="506"/><ellipse cx="504.25" cy="522" fill="#A9DCDF" rx="11" ry="11" style="stroke:#181818;stroke-width:1.0;"/><path d="M506.4375,523.7656 L502.2969,523.7656 L501.875,524.7969 L502.2969,524.7969 Q502.9063,524.7969 503.1719,525.0313 Q503.4375,525.2656 503.4375,525.6563 Q503.4375,526.0313 503.1719,526.2656 Q502.9063,526.5 502.2969,526.5 L500,526.5 Q499.3906,526.5 499.1406,526.2656 Q498.875,526.0313 498.875,525.6406 Q498.875,525.2656 499.1563,525.0313 Q499.4219,524.7813 500.0469,524.7969 L502.7188,518.1406 L501.6094,518.1406 Q501,518.1406 500.7344,517.9063 Q500.4688,517.6719 500.4688,517.2813 Q500.4688,516.9063 500.7344,516.6719 Q501,516.4375 501.6094,516.4375 L505.2813,516.4375 L508.6719,524.7969 Q509.2656,524.7969 509.4531,524.9375 Q509.8438,525.2031 509.8438,525.6563 Q509.8438,526.0313 509.5781,526.2656 Q509.3281,526.5 508.7188,526.5 L506.4219,526.5 Q505.8125,526.5 505.5469,526.2656 Q505.2813,526.0313 505.2813,525.6406 Q505.2813,525.2656 505.5469,525.0313 Q505.8125,524.7969 506.4219,524.7969 L506.8438,524.7969 L506.4375,523.7656 Z M505.7188,522.0625 L504.3594,518.6875 L502.9844,522.0625 L505.7188,522.0625 Z " fill="#000000"/><text fill="#000000" font-family="sans-serif" font-size="14" font-style="italic" lengthAdjust="spacing" textLength="72" x="524.75" y="527.7285">Pagamento</text><line style="stroke:#181818;stroke-width:0.5;" x1="431" x2="658" y1="538" y2="538"/><rect fill="none" height="6" style="stroke:#C82930;stroke-width:1.0;" width="6" x="438" y="549.3047"/><text fill="#000000" font-family="sans-serif" font-size="14" lengthAdjust="spacing" textLength="51" x="450" y="556.5332">id: Long</text><rect fill="none" height="6" style="stroke:#C82930;stroke-width:1.0;" width="6" x="438" y="566.9141"/><text fill="#000000" font-family="sans-serif" font-size="14" lengthAdjust="spacing" textLength="109" x="450" y="574.1426">valor: BigDecimal</text><rect fill="none" height="6" style="stroke:#C82930;stroke-width:1.0;" width="6" x="438" y="584.5234"/><text fill="#000000" font-family="sans-serif" font-size="14" lengthAdjust="spacing" textLength="203" x="450" y="591.752">dataPagamento: LocalDateTime</text><rect fill="none" height="6" style="stroke:#C82930;stroke-width:1.0;" width="6" x="438" y="602.1328"/><text fill="#000000" font-family="sans-serif" font-size="14" lengthAdjust="spacing" textLength="83" x="450" y="609.3613">status: String</text><line style="stroke:#181818;stroke-width:0.5;" x1="431" x2="658" y1="616.4375" y2="616.4375"/><ellipse cx="441" cy="630.7422" fill="#84BE84" rx="3" ry="3" style="stroke:#038048;stroke-width:1.0;"/><text fill="#000000" font-family="sans-serif" font-size="14" font-style="italic" lengthAdjust="spacing" textLength="132" x="450" y="634.9707">processar(): boolean</text><ellipse cx="441" cy="648.3516" fill="#84BE84" rx="3" ry="3" style="stroke:#038048;stroke-width:1.0;"/><text fill="#000000" font-family="sans-serif" font-size="14" font-style="italic" lengthAdjust="spacing" textLength="110" x="450" y="652.5801">validar(): boolean</text></g><!--class PagamentoCartao--><g id="elem_PagamentoCartao"><rect codeLine="47" fill="#F1F1F1" height="153.6563" id="PagamentoCartao" rx="2.5" ry="2.5" style="stroke:#181818;stroke-width:0.5;" width="162" x="311.5" y="738"/><ellipse cx="333.25" cy="754" fill="#ADD1B2" rx="11" ry="11" style="stroke:#181818;stroke-width:1.0;"/><path d="M336.0156,749.875 Q336.1719,749.6563 336.3594,749.5469 Q336.5469,749.4375 336.7656,749.4375 Q337.1406,749.4375 337.375,749.7031 Q337.6094,749.9531 337.6094,750.5625 L337.6094,752.0156 Q337.6094,752.625 337.375,752.8906 Q337.1406,753.1563 336.7656,753.1563 Q336.4219,753.1563 336.2188,752.9531 Q336.0156,752.7656 335.9063,752.25 Q335.8594,751.8906 335.6719,751.7031 Q335.3438,751.3281 334.7344,751.1094 Q334.125,750.8906 333.5,750.8906 Q332.7344,750.8906 332.0938,751.2188 Q331.4688,751.5469 330.9688,752.2969 Q330.4844,753.0469 330.4844,754.0781 L330.4844,755.1719 Q330.4844,756.4063 331.375,757.2344 Q332.2656,758.0469 333.8594,758.0469 Q334.7969,758.0469 335.4531,757.7969 Q335.8438,757.6406 336.2656,757.2031 Q336.5313,756.9375 336.6719,756.8594 Q336.8281,756.7813 337.0313,756.7813 Q337.3594,756.7813 337.6094,757.0469 Q337.875,757.2969 337.875,757.6406 Q337.875,757.9844 337.5313,758.3906 Q337.0313,758.9688 336.2344,759.2969 Q335.1563,759.75 333.8594,759.75 Q332.3438,759.75 331.1406,759.125 Q330.1563,758.625 329.4688,757.5625 Q328.7813,756.4844 328.7813,755.2031 L328.7813,754.0469 Q328.7813,752.7188 329.3906,751.5781 Q330.0156,750.4219 331.1094,749.8125 Q332.2031,749.1875 333.4375,749.1875 Q334.1719,749.1875 334.8125,749.3594 Q335.4688,749.5156 336.0156,749.875 Z " fill="#000000"/><text fill="#000000" font-family="sans-serif" font-size="14" lengthAdjust="spacing" textLength="115" x="348.75" y="759.7285">PagamentoCartao</text><line style="stroke:#181818;stroke-width:0.5;" x1="312.5" x2="472.5" y1="770" y2="770"/><rect fill="none" height="6" style="stroke:#C82930;stroke-width:1.0;" width="6" x="319.5" y="781.3047"/><text fill="#000000" font-family="sans-serif" font-size="14" lengthAdjust="spacing" textLength="136" x="331.5" y="788.5332">numeroCartao: String</text><rect fill="none" height="6" style="stroke:#C82930;stroke-width:1.0;" width="6" x="319.5" y="798.9141"/><text fill="#000000" font-family="sans-serif" font-size="14" lengthAdjust="spacing" textLength="80" x="331.5" y="806.1426">titular: String</text><rect fill="none" height="6" style="stroke:#C82930;stroke-width:1.0;" width="6" x="319.5" y="816.5234"/><text fill="#000000" font-family="sans-serif" font-size="14" lengthAdjust="spacing" textLength="98" x="331.5" y="823.752">validade: String</text><rect fill="none" height="6" style="stroke:#C82930;stroke-width:1.0;" width="6" x="319.5" y="834.1328"/><text fill="#000000" font-family="sans-serif" font-size="14" lengthAdjust="spacing" textLength="66" x="331.5" y="841.3613">cvv: String</text><line style="stroke:#181818;stroke-width:0.5;" x1="312.5" x2="472.5" y1="848.4375" y2="848.4375"/><ellipse cx="322.5" cy="862.7422" fill="#84BE84" rx="3" ry="3" style="stroke:#038048;stroke-width:1.0;"/><text fill="#000000" font-family="sans-serif" font-size="14" lengthAdjust="spacing" textLength="132" x="331.5" y="866.9707">processar(): boolean</text><ellipse cx="322.5" cy="880.3516" fill="#84BE84" rx="3" ry="3" style="stroke:#038048;stroke-width:1.0;"/><text fill="#000000" font-family="sans-serif" font-size="14" lengthAdjust="spacing" textLength="111" x="331.5" y="884.5801">validar(): boolean</text></g><!--class PagamentoPix--><g id="elem_PagamentoPix"><rect codeLine="56" fill="#F1F1F1" height="136.0469" id="PagamentoPix" rx="2.5" ry="2.5" style="stroke:#181818;stroke-width:0.5;" width="170" x="508.5" y="747"/><ellipse cx="545.1" cy="763" fill="#ADD1B2" rx="11" ry="11" style="stroke:#181818;stroke-width:1.0;"/><path d="M547.8656,758.875 Q548.0219,758.6563 548.2094,758.5469 Q548.3969,758.4375 548.6156,758.4375 Q548.9906,758.4375 549.225,758.7031 Q549.4594,758.9531 549.4594,759.5625 L549.4594,761.0156 Q549.4594,761.625 549.225,761.8906 Q548.9906,762.1563 548.6156,762.1563 Q548.2719,762.1563 548.0688,761.9531 Q547.8656,761.7656 547.7563,761.25 Q547.7094,760.8906 547.5219,760.7031 Q547.1938,760.3281 546.5844,760.1094 Q545.975,759.8906 545.35,759.8906 Q544.5844,759.8906 543.9438,760.2188 Q543.3188,760.5469 542.8188,761.2969 Q542.3344,762.0469 542.3344,763.0781 L542.3344,764.1719 Q542.3344,765.4063 543.225,766.2344 Q544.1156,767.0469 545.7094,767.0469 Q546.6469,767.0469 547.3031,766.7969 Q547.6938,766.6406 548.1156,766.2031 Q548.3813,765.9375 548.5219,765.8594 Q548.6781,765.7813 548.8813,765.7813 Q549.2094,765.7813 549.4594,766.0469 Q549.725,766.2969 549.725,766.6406 Q549.725,766.9844 549.3813,767.3906 Q548.8813,767.9688 548.0844,768.2969 Q547.0063,768.75 545.7094,768.75 Q544.1938,768.75 542.9906,768.125 Q542.0063,767.625 541.3188,766.5625 Q540.6313,765.4844 540.6313,764.2031 L540.6313,763.0469 Q540.6313,761.7188 541.2406,760.5781 Q541.8656,759.4219 542.9594,758.8125 Q544.0531,758.1875 545.2875,758.1875 Q546.0219,758.1875 546.6625,758.3594 Q547.3188,758.5156 547.8656,758.875 Z " fill="#000000"/><text fill="#000000" font-family="sans-serif" font-size="14" lengthAdjust="spacing" textLength="90" x="563.9" y="768.7285">PagamentoPix</text><line style="stroke:#181818;stroke-width:0.5;" x1="509.5" x2="677.5" y1="779" y2="779"/><rect fill="none" height="6" style="stroke:#C82930;stroke-width:1.0;" width="6" x="516.5" y="790.3047"/><text fill="#000000" font-family="sans-serif" font-size="14" lengthAdjust="spacing" textLength="101" x="528.5" y="797.5332">chavePix: String</text><rect fill="none" height="6" style="stroke:#C82930;stroke-width:1.0;" width="6" x="516.5" y="807.9141"/><text fill="#000000" font-family="sans-serif" font-size="14" lengthAdjust="spacing" textLength="92" x="528.5" y="815.1426">qrCode: String</text><line style="stroke:#181818;stroke-width:0.5;" x1="509.5" x2="677.5" y1="822.2188" y2="822.2188"/><ellipse cx="519.5" cy="836.5234" fill="#84BE84" rx="3" ry="3" style="stroke:#038048;stroke-width:1.0;"/><text fill="#000000" font-family="sans-serif" font-size="14" lengthAdjust="spacing" textLength="132" x="528.5" y="840.752">processar(): boolean</text><ellipse cx="519.5" cy="854.1328" fill="#84BE84" rx="3" ry="3" style="stroke:#038048;stroke-width:1.0;"/><text fill="#000000" font-family="sans-serif" font-size="14" lengthAdjust="spacing" textLength="111" x="528.5" y="858.3613">validar(): boolean</text><ellipse cx="519.5" cy="871.7422" fill="#84BE84" rx="3" ry="3" style="stroke:#038048;stroke-width:1.0;"/><text fill="#000000" font-family="sans-serif" font-size="14" lengthAdjust="spacing" textLength="144" x="528.5" y="875.9707">gerarQRCode(): String</text></g><!--class PagamentoBoleto--><g id="elem_PagamentoBoleto"><rect codeLine="64" fill="#F1F1F1" height="153.6563" id="PagamentoBoleto" rx="2.5" ry="2.5" style="stroke:#181818;stroke-width:0.5;" width="200" x="713.5" y="738"/><ellipse cx="753.7" cy="754" fill="#ADD1B2" rx="11" ry="11" style="stroke:#181818;stroke-width:1.0;"/><path d="M756.4656,749.875 Q756.6219,749.6563 756.8094,749.5469 Q756.9969,749.4375 757.2156,749.4375 Q757.5906,749.4375 757.825,749.7031 Q758.0594,749.9531 758.0594,750.5625 L758.0594,752.0156 Q758.0594,752.625 757.825,752.8906 Q757.5906,753.1563 757.2156,753.1563 Q756.8719,753.1563 756.6688,752.9531 Q756.4656,752.7656 756.3563,752.25 Q756.3094,751.8906 756.1219,751.7031 Q755.7938,751.3281 755.1844,751.1094 Q754.575,750.8906 753.95,750.8906 Q753.1844,750.8906 752.5438,751.2188 Q751.9188,751.5469 751.4188,752.2969 Q750.9344,753.0469 750.9344,754.0781 L750.9344,755.1719 Q750.9344,756.4063 751.825,757.2344 Q752.7156,758.0469 754.3094,758.0469 Q755.2469,758.0469 755.9031,757.7969 Q756.2938,757.6406 756.7156,757.2031 Q756.9813,756.9375 757.1219,756.8594 Q757.2781,756.7813 757.4813,756.7813 Q757.8094,756.7813 758.0594,757.0469 Q758.325,757.2969 758.325,757.6406 Q758.325,757.9844 757.9813,758.3906 Q757.4813,758.9688 756.6844,759.2969 Q755.6063,759.75 754.3094,759.75 Q752.7938,759.75 751.5906,759.125 Q750.6063,758.625 749.9188,757.5625 Q749.2313,756.4844 749.2313,755.2031 L749.2313,754.0469 Q749.2313,752.7188 749.8406,751.5781 Q750.4656,750.4219 751.5594,749.8125 Q752.6531,749.1875 753.8875,749.1875 Q754.6219,749.1875 755.2625,749.3594 Q755.9188,749.5156 756.4656,749.875 Z " fill="#000000"/><text fill="#000000" font-family="sans-serif" font-size="14" lengthAdjust="spacing" textLength="112" x="773.3" y="759.7285">PagamentoBoleto</text><line style="stroke:#181818;stroke-width:0.5;" x1="714.5" x2="912.5" y1="770" y2="770"/><rect fill="none" height="6" style="stroke:#C82930;stroke-width:1.0;" width="6" x="721.5" y="781.3047"/><text fill="#000000" font-family="sans-serif" font-size="14" lengthAdjust="spacing" textLength="129" x="733.5" y="788.5332">codigoBarras: String</text><rect fill="none" height="6" style="stroke:#C82930;stroke-width:1.0;" width="6" x="721.5" y="798.9141"/><text fill="#000000" font-family="sans-serif" font-size="14" lengthAdjust="spacing" textLength="174" x="733.5" y="806.1426">dataVencimento: LocalDate</text><rect fill="none" height="6" style="stroke:#C82930;stroke-width:1.0;" width="6" x="721.5" y="816.5234"/><text fill="#000000" font-family="sans-serif" font-size="14" lengthAdjust="spacing" textLength="132" x="733.5" y="823.752">nossoNumero: String</text><line style="stroke:#181818;stroke-width:0.5;" x1="714.5" x2="912.5" y1="830.8281" y2="830.8281"/><ellipse cx="724.5" cy="845.1328" fill="#84BE84" rx="3" ry="3" style="stroke:#038048;stroke-width:1.0;"/><text fill="#000000" font-family="sans-serif" font-size="14" lengthAdjust="spacing" textLength="132" x="733.5" y="849.3613">processar(): boolean</text><ellipse cx="724.5" cy="862.7422" fill="#84BE84" rx="3" ry="3" style="stroke:#038048;stroke-width:1.0;"/><text fill="#000000" font-family="sans-serif" font-size="14" lengthAdjust="spacing" textLength="111" x="733.5" y="866.9707">validar(): boolean</text><ellipse cx="724.5" cy="880.3516" fill="#84BE84" rx="3" ry="3" style="stroke:#038048;stroke-width:1.0;"/><text fill="#000000" font-family="sans-serif" font-size="14" lengthAdjust="spacing" textLength="127" x="733.5" y="884.5801">gerarBoleto(): byte[]</text></g><!--link Cliente to Pedido--><g id="link_Cliente_Pedido"><path codeLine="73" d="M318.5,161.28 C318.5,185.71 318.5,213.05 318.5,238.58 " fill="none" id="Cliente-Pedido" style="stroke:#181818;stroke-width:1.0;"/><polygon fill="#000000" points="323.5,205.1758,326.4389,196.1307,320.5611,196.1307,323.5,205.1758" style="stroke:#000000;stroke-width:1.0;"/><text fill="#000000" font-family="sans-serif" font-size="13" lengthAdjust="spacing" textLength="38" x="332.5" y="205.4951">realiza</text><text fill="#000000" font-family="sans-serif" font-size="13" lengthAdjust="spacing" textLength="7" x="311.1992" y="182.1337">1</text><text fill="#000000" font-family="sans-serif" font-size="13" lengthAdjust="spacing" textLength="20" x="297.7344" y="228.2135">0..*</text></g><!--reverse link Pedido to ItemPedido--><g id="link_Pedido_ItemPedido"><path codeLine="74" d="M264.5968,438.7286 C247.9568,470.8986 235.34,495.31 220.58,523.83 " fill="none" id="Pedido-backto-ItemPedido" style="stroke:#181818;stroke-width:1.0;"/><polygon fill="#181818" points="270.11,428.07,263.8006,431.5616,264.5968,438.7286,270.9063,435.237,270.11,428.07" style="stroke:#181818;stroke-width:1.0;"/><polygon fill="#000000" points="257.2029,471.6169,263.9688,464.933,258.7479,462.2327,257.2029,471.6169" style="stroke:#000000;stroke-width:1.0;"/><text fill="#000000" font-family="sans-serif" font-size="13" lengthAdjust="spacing" textLength="43" x="268.5" y="472.4951">cont&#233;m</text><text fill="#000000" font-family="sans-serif" font-size="13" lengthAdjust="spacing" textLength="20" x="203.0273" y="513.1335">1..*</text></g><!--link ItemPedido to Produto--><g id="link_ItemPedido_Produto"><path codeLine="75" d="M178.14,642.04 C171.95,671.05 165.6515,700.662 159.0015,731.842 " fill="none" id="ItemPedido-to-Produto" style="stroke:#181818;stroke-width:1.0;"/><polygon fill="#181818" points="157.75,737.71,163.5393,729.7423,158.7929,732.82,155.7153,728.0736,157.75,737.71" style="stroke:#181818;stroke-width:1.0;"/><polygon fill="#000000" points="171.4578,704.066,176.2175,695.8321,170.4688,694.607,171.4578,704.066" style="stroke:#000000;stroke-width:1.0;"/><text fill="#000000" font-family="sans-serif" font-size="13" lengthAdjust="spacing" textLength="56" x="181.5" y="704.4951">referencia</text><text fill="#000000" font-family="sans-serif" font-size="13" lengthAdjust="spacing" textLength="20" x="155.2751" y="664.1191">0..*</text><text fill="#000000" font-family="sans-serif" font-size="13" lengthAdjust="spacing" textLength="7" x="151.9652" y="727.1091">1</text></g><!--reverse link Pedido to Pagamento--><g id="link_Pedido_Pagamento"><path codeLine="76" d="M412.0324,436.9308 C435.4124,462.5308 452.37,481.1 474.75,505.61 " fill="none" id="Pedido-backto-Pagamento" style="stroke:#181818;stroke-width:1.0;"/><polygon fill="none" points="403.94,428.07,405.0326,435.1978,412.0324,436.9308,410.9398,429.8029,403.94,428.07" style="stroke:#181818;stroke-width:1.0;"/><polygon fill="#000000" points="453.8717,470.8679,449.9425,462.207,445.6021,466.1706,453.8717,470.8679" style="stroke:#000000;stroke-width:1.0;"/><text fill="#000000" font-family="sans-serif" font-size="13" lengthAdjust="spacing" textLength="50" x="459.5" y="472.4951">pago por</text><text fill="#000000" font-family="sans-serif" font-size="13" lengthAdjust="spacing" textLength="22" x="445.3059" y="495.2653">0..1</text></g><!--reverse link Pagamento to PagamentoCartao--><g id="link_Pagamento_PagamentoCartao"><path codeLine="78" d="M484.1724,675.2847 C467.6624,700.2547 459.26,712.98 442.77,737.94 " fill="none" id="Pagamento-backto-PagamentoCartao" style="stroke:#181818;stroke-width:1.0;"/><polygon fill="none" points="494.1,660.27,479.1675,671.9755,489.1773,678.5939,494.1,660.27" style="stroke:#181818;stroke-width:1.0;"/></g><!--reverse link Pagamento to PagamentoPix--><g id="link_Pagamento_PagamentoPix"><path codeLine="79" d="M564.5,677.875 C570.46,705.855 573.41,719.7 579.19,746.83 " fill="none" id="Pagamento-backto-PagamentoPix" style="stroke:#181818;stroke-width:1.0;"/><polygon fill="none" points="560.75,660.27,558.6317,679.125,570.3684,676.625,560.75,660.27" style="stroke:#181818;stroke-width:1.0;"/></g><!--reverse link Pagamento to PagamentoBoleto--><g id="link_Pagamento_PagamentoBoleto"><path codeLine="80" d="M647.3821,671.9661 C676.5921,696.9361 695.35,712.98 724.54,737.94 " fill="none" id="Pagamento-backto-PagamentoBoleto" style="stroke:#181818;stroke-width:1.0;"/><polygon fill="none" points="633.7,660.27,643.4834,676.5268,651.2808,667.4054,633.7,660.27" style="stroke:#181818;stroke-width:1.0;"/></g><!--SRC=[fLJ1Rjim3BtxAuISiXOfrgjHv91qXm75qAtTBiCEZAHw0cGnaMXZMzSFsdVinoR9acCxoP1X5qCYQRx7Hr9SWtDihPKq9DbpmTY2AL6oEpHLl1YiPSaUoAfaa3KeFRBmxTFWVici1Ar-WBsNGWcSlofPTufEZiOrchBN1VUTSdJJtPV5Ir7mIAep7ECaWA3p1YC7VGia7rKjezSHKED635lGQ1-Hm1DVgUfMSbM3Zdn0AAxGW7rBifw7JvVPqsfHYLHGZQtyMuJdm1iD7KOeQOBIIm8Lr5vgdFUddAQlUuzmhFPT0uQK0E6xeWn5szPAZX-DygegFC3Et1wQ3HsXjzVRecW8pne28HstYWEEh9771DyFZ2FSDJrTBpardHflEizyKjD04TWuii299OfPj6CaOvCFqEEivD_E6fTBzfnXNtn9oALpO8Dg6qGjmKnZFB0dFuhOYvgXrs09Cc_JrD8cqqX1KXHQDHtUfCrmvzfsHFaapxF8tQjlYHd_2gtqrn7OpgvnXFzlUC5SIGls_OUG9xXIfaCcA_zBtrwEGbMu0cjXlC-XgP-ayLsUT3LDgtFuBahy_vmxGj7rdUJdBu5pVYvdrpEsMB3PwwkhYrb-hygyx6nP9DD52BgEGOFbBiDRIBz_rJvmO4xP5ejbp9-tCgHzaZOKFSYC2Ju4zhjHiYrKoBPeVM2njz_yzD6JWJpfzZDmqjTfKlm1]--></g></svg>