<?xml version="1.0" encoding="us-ascii" standalone="no"?><svg xmlns="http://www.w3.org/2000/svg" xmlns:xlink="http://www.w3.org/1999/xlink" contentStyleType="text/css" height="1103px" preserveAspectRatio="none" style="width:908px;height:1103px;background:#FFFFFF;" version="1.1" viewBox="0 0 908 1103" width="908px" zoomAndPan="magnify"><defs/><g><!--class Usuario--><g id="elem_Usuario"><rect codeLine="2" fill="#F1F1F1" height="171.2656" id="Usuario" rx="2.5" ry="2.5" style="stroke:#181818;stroke-width:0.5;" width="295" x="27.5" y="7"/><ellipse cx="146.75" cy="23" fill="#ADD1B2" rx="11" ry="11" style="stroke:#181818;stroke-width:1.0;"/><path d="M149.5156,18.875 Q149.6719,18.6563 149.8594,18.5469 Q150.0469,18.4375 150.2656,18.4375 Q150.6406,18.4375 150.875,18.7031 Q151.1094,18.9531 151.1094,19.5625 L151.1094,21.0156 Q151.1094,21.625 150.875,21.8906 Q150.6406,22.1563 150.2656,22.1563 Q149.9219,22.1563 149.7188,21.9531 Q149.5156,21.7656 149.4063,21.25 Q149.3594,20.8906 149.1719,20.7031 Q148.8438,20.3281 148.2344,20.1094 Q147.625,19.8906 147,19.8906 Q146.2344,19.8906 145.5938,20.2188 Q144.9688,20.5469 144.4688,21.2969 Q143.9844,22.0469 143.9844,23.0781 L143.9844,24.1719 Q143.9844,25.4063 144.875,26.2344 Q145.7656,27.0469 147.3594,27.0469 Q148.2969,27.0469 148.9531,26.7969 Q149.3438,26.6406 149.7656,26.2031 Q150.0313,25.9375 150.1719,25.8594 Q150.3281,25.7813 150.5313,25.7813 Q150.8594,25.7813 151.1094,26.0469 Q151.375,26.2969 151.375,26.6406 Q151.375,26.9844 151.0313,27.3906 Q150.5313,27.9688 149.7344,28.2969 Q148.6563,28.75 147.3594,28.75 Q145.8438,28.75 144.6406,28.125 Q143.6563,27.625 142.9688,26.5625 Q142.2813,25.4844 142.2813,24.2031 L142.2813,23.0469 Q142.2813,21.7188 142.8906,20.5781 Q143.5156,19.4219 144.6094,18.8125 Q145.7031,18.1875 146.9375,18.1875 Q147.6719,18.1875 148.3125,18.3594 Q148.9688,18.5156 149.5156,18.875 Z " fill="#000000"/><text fill="#000000" font-family="sans-serif" font-size="14" lengthAdjust="spacing" textLength="48" x="167.25" y="28.7285">Usuario</text><line style="stroke:#181818;stroke-width:0.5;" x1="28.5" x2="321.5" y1="39" y2="39"/><rect fill="none" height="6" style="stroke:#C82930;stroke-width:1.0;" width="6" x="35.5" y="50.3047"/><text fill="#000000" font-family="sans-serif" font-size="14" lengthAdjust="spacing" textLength="51" x="47.5" y="57.5332">id: Long</text><rect fill="none" height="6" style="stroke:#C82930;stroke-width:1.0;" width="6" x="35.5" y="67.9141"/><text fill="#000000" font-family="sans-serif" font-size="14" lengthAdjust="spacing" textLength="80" x="47.5" y="75.1426">nome: String</text><rect fill="none" height="6" style="stroke:#C82930;stroke-width:1.0;" width="6" x="35.5" y="85.5234"/><text fill="#000000" font-family="sans-serif" font-size="14" lengthAdjust="spacing" textLength="102" x="47.5" y="92.752">matricula: String</text><rect fill="none" height="6" style="stroke:#C82930;stroke-width:1.0;" width="6" x="35.5" y="103.1328"/><text fill="#000000" font-family="sans-serif" font-size="14" lengthAdjust="spacing" textLength="78" x="47.5" y="110.3613">email: String</text><rect fill="none" height="6" style="stroke:#C82930;stroke-width:1.0;" width="6" x="35.5" y="120.7422"/><text fill="#000000" font-family="sans-serif" font-size="14" lengthAdjust="spacing" textLength="96" x="47.5" y="127.9707">telefone: String</text><line style="stroke:#181818;stroke-width:0.5;" x1="28.5" x2="321.5" y1="135.0469" y2="135.0469"/><ellipse cx="38.5" cy="149.3516" fill="#84BE84" rx="3" ry="3" style="stroke:#038048;stroke-width:1.0;"/><text fill="#000000" font-family="sans-serif" font-size="14" lengthAdjust="spacing" textLength="201" x="47.5" y="153.5801">realizarReserva(Livro): Reserva</text><ellipse cx="38.5" cy="166.9609" fill="#84BE84" rx="3" ry="3" style="stroke:#038048;stroke-width:1.0;"/><text fill="#000000" font-family="sans-serif" font-size="14" lengthAdjust="spacing" textLength="269" x="47.5" y="171.1895">consultarEmprestimos(): List&lt;Emprestimo&gt;</text></g><!--class Livro--><g id="elem_Livro"><rect codeLine="12" fill="#F1F1F1" height="171.2656" id="Livro" rx="2.5" ry="2.5" style="stroke:#181818;stroke-width:0.5;" width="226" x="368" y="676"/><ellipse cx="461.25" cy="692" fill="#ADD1B2" rx="11" ry="11" style="stroke:#181818;stroke-width:1.0;"/><path d="M464.0156,687.875 Q464.1719,687.6563 464.3594,687.5469 Q464.5469,687.4375 464.7656,687.4375 Q465.1406,687.4375 465.375,687.7031 Q465.6094,687.9531 465.6094,688.5625 L465.6094,690.0156 Q465.6094,690.625 465.375,690.8906 Q465.1406,691.1563 464.7656,691.1563 Q464.4219,691.1563 464.2188,690.9531 Q464.0156,690.7656 463.9063,690.25 Q463.8594,689.8906 463.6719,689.7031 Q463.3438,689.3281 462.7344,689.1094 Q462.125,688.8906 461.5,688.8906 Q460.7344,688.8906 460.0938,689.2188 Q459.4688,689.5469 458.9688,690.2969 Q458.4844,691.0469 458.4844,692.0781 L458.4844,693.1719 Q458.4844,694.4063 459.375,695.2344 Q460.2656,696.0469 461.8594,696.0469 Q462.7969,696.0469 463.4531,695.7969 Q463.8438,695.6406 464.2656,695.2031 Q464.5313,694.9375 464.6719,694.8594 Q464.8281,694.7813 465.0313,694.7813 Q465.3594,694.7813 465.6094,695.0469 Q465.875,695.2969 465.875,695.6406 Q465.875,695.9844 465.5313,696.3906 Q465.0313,696.9688 464.2344,697.2969 Q463.1563,697.75 461.8594,697.75 Q460.3438,697.75 459.1406,697.125 Q458.1563,696.625 457.4688,695.5625 Q456.7813,694.4844 456.7813,693.2031 L456.7813,692.0469 Q456.7813,690.7188 457.3906,689.5781 Q458.0156,688.4219 459.1094,687.8125 Q460.2031,687.1875 461.4375,687.1875 Q462.1719,687.1875 462.8125,687.3594 Q463.4688,687.5156 464.0156,687.875 Z " fill="#000000"/><text fill="#000000" font-family="sans-serif" font-size="14" lengthAdjust="spacing" textLength="31" x="481.75" y="697.7285">Livro</text><line style="stroke:#181818;stroke-width:0.5;" x1="369" x2="593" y1="708" y2="708"/><rect fill="none" height="6" style="stroke:#C82930;stroke-width:1.0;" width="6" x="376" y="719.3047"/><text fill="#000000" font-family="sans-serif" font-size="14" lengthAdjust="spacing" textLength="51" x="388" y="726.5332">id: Long</text><rect fill="none" height="6" style="stroke:#C82930;stroke-width:1.0;" width="6" x="376" y="736.9141"/><text fill="#000000" font-family="sans-serif" font-size="14" lengthAdjust="spacing" textLength="75" x="388" y="744.1426">titulo: String</text><rect fill="none" height="6" style="stroke:#C82930;stroke-width:1.0;" width="6" x="376" y="754.5234"/><text fill="#000000" font-family="sans-serif" font-size="14" lengthAdjust="spacing" textLength="71" x="388" y="761.752">isbn: String</text><rect fill="none" height="6" style="stroke:#C82930;stroke-width:1.0;" width="6" x="376" y="772.1328"/><text fill="#000000" font-family="sans-serif" font-size="14" lengthAdjust="spacing" textLength="116" x="388" y="779.3613">anoPublicacao: int</text><rect fill="none" height="6" style="stroke:#C82930;stroke-width:1.0;" width="6" x="376" y="789.7422"/><text fill="#000000" font-family="sans-serif" font-size="14" lengthAdjust="spacing" textLength="104" x="388" y="796.9707">categoria: String</text><line style="stroke:#181818;stroke-width:0.5;" x1="369" x2="593" y1="804.0469" y2="804.0469"/><ellipse cx="379" cy="818.3516" fill="#84BE84" rx="3" ry="3" style="stroke:#038048;stroke-width:1.0;"/><text fill="#000000" font-family="sans-serif" font-size="14" lengthAdjust="spacing" textLength="187" x="388" y="822.5801">consultarDisponibilidade(): int</text><ellipse cx="379" cy="835.9609" fill="#84BE84" rx="3" ry="3" style="stroke:#038048;stroke-width:1.0;"/><text fill="#000000" font-family="sans-serif" font-size="14" lengthAdjust="spacing" textLength="200" x="388" y="840.1895">buscarCopiaDisponivel(): Copia</text></g><!--class Copia--><g id="elem_Copia"><rect codeLine="22" fill="#F1F1F1" height="171.2656" id="Copia" rx="2.5" ry="2.5" style="stroke:#181818;stroke-width:0.5;" width="241" x="360.5" y="925"/><ellipse cx="458.25" cy="941" fill="#ADD1B2" rx="11" ry="11" style="stroke:#181818;stroke-width:1.0;"/><path d="M461.0156,936.875 Q461.1719,936.6563 461.3594,936.5469 Q461.5469,936.4375 461.7656,936.4375 Q462.1406,936.4375 462.375,936.7031 Q462.6094,936.9531 462.6094,937.5625 L462.6094,939.0156 Q462.6094,939.625 462.375,939.8906 Q462.1406,940.1563 461.7656,940.1563 Q461.4219,940.1563 461.2188,939.9531 Q461.0156,939.7656 460.9063,939.25 Q460.8594,938.8906 460.6719,938.7031 Q460.3438,938.3281 459.7344,938.1094 Q459.125,937.8906 458.5,937.8906 Q457.7344,937.8906 457.0938,938.2188 Q456.4688,938.5469 455.9688,939.2969 Q455.4844,940.0469 455.4844,941.0781 L455.4844,942.1719 Q455.4844,943.4063 456.375,944.2344 Q457.2656,945.0469 458.8594,945.0469 Q459.7969,945.0469 460.4531,944.7969 Q460.8438,944.6406 461.2656,944.2031 Q461.5313,943.9375 461.6719,943.8594 Q461.8281,943.7813 462.0313,943.7813 Q462.3594,943.7813 462.6094,944.0469 Q462.875,944.2969 462.875,944.6406 Q462.875,944.9844 462.5313,945.3906 Q462.0313,945.9688 461.2344,946.2969 Q460.1563,946.75 458.8594,946.75 Q457.3438,946.75 456.1406,946.125 Q455.1563,945.625 454.4688,944.5625 Q453.7813,943.4844 453.7813,942.2031 L453.7813,941.0469 Q453.7813,939.7188 454.3906,938.5781 Q455.0156,937.4219 456.1094,936.8125 Q457.2031,936.1875 458.4375,936.1875 Q459.1719,936.1875 459.8125,936.3594 Q460.4688,936.5156 461.0156,936.875 Z " fill="#000000"/><text fill="#000000" font-family="sans-serif" font-size="14" lengthAdjust="spacing" textLength="37" x="478.75" y="946.7285">Copia</text><line style="stroke:#181818;stroke-width:0.5;" x1="361.5" x2="600.5" y1="957" y2="957"/><rect fill="none" height="6" style="stroke:#C82930;stroke-width:1.0;" width="6" x="368.5" y="968.3047"/><text fill="#000000" font-family="sans-serif" font-size="14" lengthAdjust="spacing" textLength="51" x="380.5" y="975.5332">id: Long</text><rect fill="none" height="6" style="stroke:#C82930;stroke-width:1.0;" width="6" x="368.5" y="985.9141"/><text fill="#000000" font-family="sans-serif" font-size="14" lengthAdjust="spacing" textLength="87" x="380.5" y="993.1426">codigo: String</text><rect fill="none" height="6" style="stroke:#C82930;stroke-width:1.0;" width="6" x="368.5" y="1003.5234"/><text fill="#000000" font-family="sans-serif" font-size="14" lengthAdjust="spacing" textLength="83" x="380.5" y="1010.752">status: String</text><rect fill="none" height="6" style="stroke:#C82930;stroke-width:1.0;" width="6" x="368.5" y="1021.1328"/><text fill="#000000" font-family="sans-serif" font-size="14" lengthAdjust="spacing" textLength="114" x="380.5" y="1028.3613">localizacao: String</text><line style="stroke:#181818;stroke-width:0.5;" x1="361.5" x2="600.5" y1="1035.4375" y2="1035.4375"/><ellipse cx="371.5" cy="1049.7422" fill="#84BE84" rx="3" ry="3" style="stroke:#038048;stroke-width:1.0;"/><text fill="#000000" font-family="sans-serif" font-size="14" lengthAdjust="spacing" textLength="201" x="380.5" y="1053.9707">marcarComoEmprestada(): void</text><ellipse cx="371.5" cy="1067.3516" fill="#84BE84" rx="3" ry="3" style="stroke:#038048;stroke-width:1.0;"/><text fill="#000000" font-family="sans-serif" font-size="14" lengthAdjust="spacing" textLength="190" x="380.5" y="1071.5801">marcarComoDisponivel(): void</text><ellipse cx="371.5" cy="1084.9609" fill="#84BE84" rx="3" ry="3" style="stroke:#038048;stroke-width:1.0;"/><text fill="#000000" font-family="sans-serif" font-size="14" lengthAdjust="spacing" textLength="215" x="380.5" y="1089.1895">verificarDisponibilidade(): boolean</text></g><!--class Biblioteca--><g id="elem_Biblioteca"><rect codeLine="32" fill="#F1F1F1" height="153.6563" id="Biblioteca" rx="2.5" ry="2.5" style="stroke:#181818;stroke-width:0.5;" width="221" x="629.5" y="684.5"/><ellipse cx="705.25" cy="700.5" fill="#ADD1B2" rx="11" ry="11" style="stroke:#181818;stroke-width:1.0;"/><path d="M708.0156,696.375 Q708.1719,696.1563 708.3594,696.0469 Q708.5469,695.9375 708.7656,695.9375 Q709.1406,695.9375 709.375,696.2031 Q709.6094,696.4531 709.6094,697.0625 L709.6094,698.5156 Q709.6094,699.125 709.375,699.3906 Q709.1406,699.6563 708.7656,699.6563 Q708.4219,699.6563 708.2188,699.4531 Q708.0156,699.2656 707.9063,698.75 Q707.8594,698.3906 707.6719,698.2031 Q707.3438,697.8281 706.7344,697.6094 Q706.125,697.3906 705.5,697.3906 Q704.7344,697.3906 704.0938,697.7188 Q703.4688,698.0469 702.9688,698.7969 Q702.4844,699.5469 702.4844,700.5781 L702.4844,701.6719 Q702.4844,702.9063 703.375,703.7344 Q704.2656,704.5469 705.8594,704.5469 Q706.7969,704.5469 707.4531,704.2969 Q707.8438,704.1406 708.2656,703.7031 Q708.5313,703.4375 708.6719,703.3594 Q708.8281,703.2813 709.0313,703.2813 Q709.3594,703.2813 709.6094,703.5469 Q709.875,703.7969 709.875,704.1406 Q709.875,704.4844 709.5313,704.8906 Q709.0313,705.4688 708.2344,705.7969 Q707.1563,706.25 705.8594,706.25 Q704.3438,706.25 703.1406,705.625 Q702.1563,705.125 701.4688,704.0625 Q700.7813,702.9844 700.7813,701.7031 L700.7813,700.5469 Q700.7813,699.2188 701.3906,698.0781 Q702.0156,696.9219 703.1094,696.3125 Q704.2031,695.6875 705.4375,695.6875 Q706.1719,695.6875 706.8125,695.8594 Q707.4688,696.0156 708.0156,696.375 Z " fill="#000000"/><text fill="#000000" font-family="sans-serif" font-size="14" lengthAdjust="spacing" textLength="61" x="725.75" y="706.2285">Biblioteca</text><line style="stroke:#181818;stroke-width:0.5;" x1="630.5" x2="849.5" y1="716.5" y2="716.5"/><rect fill="none" height="6" style="stroke:#C82930;stroke-width:1.0;" width="6" x="637.5" y="727.8047"/><text fill="#000000" font-family="sans-serif" font-size="14" lengthAdjust="spacing" textLength="51" x="649.5" y="735.0332">id: Long</text><rect fill="none" height="6" style="stroke:#C82930;stroke-width:1.0;" width="6" x="637.5" y="745.4141"/><text fill="#000000" font-family="sans-serif" font-size="14" lengthAdjust="spacing" textLength="80" x="649.5" y="752.6426">nome: String</text><rect fill="none" height="6" style="stroke:#C82930;stroke-width:1.0;" width="6" x="637.5" y="763.0234"/><text fill="#000000" font-family="sans-serif" font-size="14" lengthAdjust="spacing" textLength="105" x="649.5" y="770.252">endereco: String</text><rect fill="none" height="6" style="stroke:#C82930;stroke-width:1.0;" width="6" x="637.5" y="780.6328"/><text fill="#000000" font-family="sans-serif" font-size="14" lengthAdjust="spacing" textLength="96" x="649.5" y="787.8613">telefone: String</text><line style="stroke:#181818;stroke-width:0.5;" x1="630.5" x2="849.5" y1="794.9375" y2="794.9375"/><ellipse cx="640.5" cy="809.2422" fill="#84BE84" rx="3" ry="3" style="stroke:#038048;stroke-width:1.0;"/><text fill="#000000" font-family="sans-serif" font-size="14" lengthAdjust="spacing" textLength="183" x="649.5" y="813.4707">cadastrarCopia(Livro): Copia</text><ellipse cx="640.5" cy="826.8516" fill="#84BE84" rx="3" ry="3" style="stroke:#038048;stroke-width:1.0;"/><text fill="#000000" font-family="sans-serif" font-size="14" lengthAdjust="spacing" textLength="195" x="649.5" y="831.0801">consultarAcervo(): List&lt;Copia&gt;</text></g><!--class Autor--><g id="elem_Autor"><rect codeLine="41" fill="#F1F1F1" height="136.0469" id="Autor" rx="2.5" ry="2.5" style="stroke:#181818;stroke-width:0.5;" width="199" x="182.5" y="273.5"/><ellipse cx="260.75" cy="289.5" fill="#ADD1B2" rx="11" ry="11" style="stroke:#181818;stroke-width:1.0;"/><path d="M263.5156,285.375 Q263.6719,285.1563 263.8594,285.0469 Q264.0469,284.9375 264.2656,284.9375 Q264.6406,284.9375 264.875,285.2031 Q265.1094,285.4531 265.1094,286.0625 L265.1094,287.5156 Q265.1094,288.125 264.875,288.3906 Q264.6406,288.6563 264.2656,288.6563 Q263.9219,288.6563 263.7188,288.4531 Q263.5156,288.2656 263.4063,287.75 Q263.3594,287.3906 263.1719,287.2031 Q262.8438,286.8281 262.2344,286.6094 Q261.625,286.3906 261,286.3906 Q260.2344,286.3906 259.5938,286.7188 Q258.9688,287.0469 258.4688,287.7969 Q257.9844,288.5469 257.9844,289.5781 L257.9844,290.6719 Q257.9844,291.9063 258.875,292.7344 Q259.7656,293.5469 261.3594,293.5469 Q262.2969,293.5469 262.9531,293.2969 Q263.3438,293.1406 263.7656,292.7031 Q264.0313,292.4375 264.1719,292.3594 Q264.3281,292.2813 264.5313,292.2813 Q264.8594,292.2813 265.1094,292.5469 Q265.375,292.7969 265.375,293.1406 Q265.375,293.4844 265.0313,293.8906 Q264.5313,294.4688 263.7344,294.7969 Q262.6563,295.25 261.3594,295.25 Q259.8438,295.25 258.6406,294.625 Q257.6563,294.125 256.9688,293.0625 Q256.2813,291.9844 256.2813,290.7031 L256.2813,289.5469 Q256.2813,288.2188 256.8906,287.0781 Q257.5156,285.9219 258.6094,285.3125 Q259.7031,284.6875 260.9375,284.6875 Q261.6719,284.6875 262.3125,284.8594 Q262.9688,285.0156 263.5156,285.375 Z " fill="#000000"/><text fill="#000000" font-family="sans-serif" font-size="14" lengthAdjust="spacing" textLength="34" x="281.25" y="295.2285">Autor</text><line style="stroke:#181818;stroke-width:0.5;" x1="183.5" x2="380.5" y1="305.5" y2="305.5"/><rect fill="none" height="6" style="stroke:#C82930;stroke-width:1.0;" width="6" x="190.5" y="316.8047"/><text fill="#000000" font-family="sans-serif" font-size="14" lengthAdjust="spacing" textLength="51" x="202.5" y="324.0332">id: Long</text><rect fill="none" height="6" style="stroke:#C82930;stroke-width:1.0;" width="6" x="190.5" y="334.4141"/><text fill="#000000" font-family="sans-serif" font-size="14" lengthAdjust="spacing" textLength="80" x="202.5" y="341.6426">nome: String</text><rect fill="none" height="6" style="stroke:#C82930;stroke-width:1.0;" width="6" x="190.5" y="352.0234"/><text fill="#000000" font-family="sans-serif" font-size="14" lengthAdjust="spacing" textLength="133" x="202.5" y="359.252">nacionalidade: String</text><rect fill="none" height="6" style="stroke:#C82930;stroke-width:1.0;" width="6" x="190.5" y="369.6328"/><text fill="#000000" font-family="sans-serif" font-size="14" lengthAdjust="spacing" textLength="173" x="202.5" y="376.8613">dataNascimento: LocalDate</text><line style="stroke:#181818;stroke-width:0.5;" x1="183.5" x2="380.5" y1="383.9375" y2="383.9375"/><ellipse cx="193.5" cy="398.2422" fill="#84BE84" rx="3" ry="3" style="stroke:#038048;stroke-width:1.0;"/><text fill="#000000" font-family="sans-serif" font-size="14" lengthAdjust="spacing" textLength="156" x="202.5" y="402.4707">listarObras(): List&lt;Livro&gt;</text></g><!--class Editora--><g id="elem_Editora"><rect codeLine="49" fill="#F1F1F1" height="136.0469" id="Editora" rx="2.5" ry="2.5" style="stroke:#181818;stroke-width:0.5;" width="219" x="416.5" y="273.5"/><ellipse cx="499.25" cy="289.5" fill="#ADD1B2" rx="11" ry="11" style="stroke:#181818;stroke-width:1.0;"/><path d="M502.0156,285.375 Q502.1719,285.1563 502.3594,285.0469 Q502.5469,284.9375 502.7656,284.9375 Q503.1406,284.9375 503.375,285.2031 Q503.6094,285.4531 503.6094,286.0625 L503.6094,287.5156 Q503.6094,288.125 503.375,288.3906 Q503.1406,288.6563 502.7656,288.6563 Q502.4219,288.6563 502.2188,288.4531 Q502.0156,288.2656 501.9063,287.75 Q501.8594,287.3906 501.6719,287.2031 Q501.3438,286.8281 500.7344,286.6094 Q500.125,286.3906 499.5,286.3906 Q498.7344,286.3906 498.0938,286.7188 Q497.4688,287.0469 496.9688,287.7969 Q496.4844,288.5469 496.4844,289.5781 L496.4844,290.6719 Q496.4844,291.9063 497.375,292.7344 Q498.2656,293.5469 499.8594,293.5469 Q500.7969,293.5469 501.4531,293.2969 Q501.8438,293.1406 502.2656,292.7031 Q502.5313,292.4375 502.6719,292.3594 Q502.8281,292.2813 503.0313,292.2813 Q503.3594,292.2813 503.6094,292.5469 Q503.875,292.7969 503.875,293.1406 Q503.875,293.4844 503.5313,293.8906 Q503.0313,294.4688 502.2344,294.7969 Q501.1563,295.25 499.8594,295.25 Q498.3438,295.25 497.1406,294.625 Q496.1563,294.125 495.4688,293.0625 Q494.7813,291.9844 494.7813,290.7031 L494.7813,289.5469 Q494.7813,288.2188 495.3906,287.0781 Q496.0156,285.9219 497.1094,285.3125 Q498.2031,284.6875 499.4375,284.6875 Q500.1719,284.6875 500.8125,284.8594 Q501.4688,285.0156 502.0156,285.375 Z " fill="#000000"/><text fill="#000000" font-family="sans-serif" font-size="14" lengthAdjust="spacing" textLength="45" x="519.75" y="295.2285">Editora</text><line style="stroke:#181818;stroke-width:0.5;" x1="417.5" x2="634.5" y1="305.5" y2="305.5"/><rect fill="none" height="6" style="stroke:#C82930;stroke-width:1.0;" width="6" x="424.5" y="316.8047"/><text fill="#000000" font-family="sans-serif" font-size="14" lengthAdjust="spacing" textLength="51" x="436.5" y="324.0332">id: Long</text><rect fill="none" height="6" style="stroke:#C82930;stroke-width:1.0;" width="6" x="424.5" y="334.4141"/><text fill="#000000" font-family="sans-serif" font-size="14" lengthAdjust="spacing" textLength="80" x="436.5" y="341.6426">nome: String</text><rect fill="none" height="6" style="stroke:#C82930;stroke-width:1.0;" width="6" x="424.5" y="352.0234"/><text fill="#000000" font-family="sans-serif" font-size="14" lengthAdjust="spacing" textLength="71" x="436.5" y="359.252">cnpj: String</text><rect fill="none" height="6" style="stroke:#C82930;stroke-width:1.0;" width="6" x="424.5" y="369.6328"/><text fill="#000000" font-family="sans-serif" font-size="14" lengthAdjust="spacing" textLength="87" x="436.5" y="376.8613">cidade: String</text><line style="stroke:#181818;stroke-width:0.5;" x1="417.5" x2="634.5" y1="383.9375" y2="383.9375"/><ellipse cx="427.5" cy="398.2422" fill="#84BE84" rx="3" ry="3" style="stroke:#038048;stroke-width:1.0;"/><text fill="#000000" font-family="sans-serif" font-size="14" lengthAdjust="spacing" textLength="193" x="436.5" y="402.4707">listarPublicacoes(): List&lt;Livro&gt;</text></g><!--class Reserva--><g id="elem_Reserva"><rect codeLine="57" fill="#F1F1F1" height="171.2656" id="Reserva" rx="2.5" ry="2.5" style="stroke:#181818;stroke-width:0.5;" width="231" x="670.5" y="256"/><ellipse cx="755.25" cy="272" fill="#ADD1B2" rx="11" ry="11" style="stroke:#181818;stroke-width:1.0;"/><path d="M758.0156,267.875 Q758.1719,267.6563 758.3594,267.5469 Q758.5469,267.4375 758.7656,267.4375 Q759.1406,267.4375 759.375,267.7031 Q759.6094,267.9531 759.6094,268.5625 L759.6094,270.0156 Q759.6094,270.625 759.375,270.8906 Q759.1406,271.1563 758.7656,271.1563 Q758.4219,271.1563 758.2188,270.9531 Q758.0156,270.7656 757.9063,270.25 Q757.8594,269.8906 757.6719,269.7031 Q757.3438,269.3281 756.7344,269.1094 Q756.125,268.8906 755.5,268.8906 Q754.7344,268.8906 754.0938,269.2188 Q753.4688,269.5469 752.9688,270.2969 Q752.4844,271.0469 752.4844,272.0781 L752.4844,273.1719 Q752.4844,274.4063 753.375,275.2344 Q754.2656,276.0469 755.8594,276.0469 Q756.7969,276.0469 757.4531,275.7969 Q757.8438,275.6406 758.2656,275.2031 Q758.5313,274.9375 758.6719,274.8594 Q758.8281,274.7813 759.0313,274.7813 Q759.3594,274.7813 759.6094,275.0469 Q759.875,275.2969 759.875,275.6406 Q759.875,275.9844 759.5313,276.3906 Q759.0313,276.9688 758.2344,277.2969 Q757.1563,277.75 755.8594,277.75 Q754.3438,277.75 753.1406,277.125 Q752.1563,276.625 751.4688,275.5625 Q750.7813,274.4844 750.7813,273.2031 L750.7813,272.0469 Q750.7813,270.7188 751.3906,269.5781 Q752.0156,268.4219 753.1094,267.8125 Q754.2031,267.1875 755.4375,267.1875 Q756.1719,267.1875 756.8125,267.3594 Q757.4688,267.5156 758.0156,267.875 Z " fill="#000000"/><text fill="#000000" font-family="sans-serif" font-size="14" lengthAdjust="spacing" textLength="53" x="775.75" y="277.7285">Reserva</text><line style="stroke:#181818;stroke-width:0.5;" x1="671.5" x2="900.5" y1="288" y2="288"/><rect fill="none" height="6" style="stroke:#C82930;stroke-width:1.0;" width="6" x="678.5" y="299.3047"/><text fill="#000000" font-family="sans-serif" font-size="14" lengthAdjust="spacing" textLength="51" x="690.5" y="306.5332">id: Long</text><rect fill="none" height="6" style="stroke:#C82930;stroke-width:1.0;" width="6" x="678.5" y="316.9141"/><text fill="#000000" font-family="sans-serif" font-size="14" lengthAdjust="spacing" textLength="199" x="690.5" y="324.1426">dataSolicitacao: LocalDateTime</text><rect fill="none" height="6" style="stroke:#C82930;stroke-width:1.0;" width="6" x="678.5" y="334.5234"/><text fill="#000000" font-family="sans-serif" font-size="14" lengthAdjust="spacing" textLength="193" x="690.5" y="341.752">dataExpiracao: LocalDateTime</text><rect fill="none" height="6" style="stroke:#C82930;stroke-width:1.0;" width="6" x="678.5" y="352.1328"/><text fill="#000000" font-family="sans-serif" font-size="14" lengthAdjust="spacing" textLength="83" x="690.5" y="359.3613">status: String</text><line style="stroke:#181818;stroke-width:0.5;" x1="671.5" x2="900.5" y1="366.4375" y2="366.4375"/><ellipse cx="681.5" cy="380.7422" fill="#84BE84" rx="3" ry="3" style="stroke:#038048;stroke-width:1.0;"/><text fill="#000000" font-family="sans-serif" font-size="14" lengthAdjust="spacing" textLength="98" x="690.5" y="384.9707">cancelar(): void</text><ellipse cx="681.5" cy="398.3516" fill="#84BE84" rx="3" ry="3" style="stroke:#038048;stroke-width:1.0;"/><text fill="#000000" font-family="sans-serif" font-size="14" lengthAdjust="spacing" textLength="87" x="690.5" y="402.5801">expirar(): void</text><ellipse cx="681.5" cy="415.9609" fill="#84BE84" rx="3" ry="3" style="stroke:#038048;stroke-width:1.0;"/><text fill="#000000" font-family="sans-serif" font-size="14" lengthAdjust="spacing" textLength="205" x="690.5" y="420.1895">confirmarRetirada(): Emprestimo</text></g><!--class Emprestimo--><g id="elem_Emprestimo"><rect codeLine="67" fill="#F1F1F1" height="188.875" id="Emprestimo" rx="2.5" ry="2.5" style="stroke:#181818;stroke-width:0.5;" width="244" x="7" y="457"/><ellipse cx="87.75" cy="473" fill="#ADD1B2" rx="11" ry="11" style="stroke:#181818;stroke-width:1.0;"/><path d="M90.5156,468.875 Q90.6719,468.6563 90.8594,468.5469 Q91.0469,468.4375 91.2656,468.4375 Q91.6406,468.4375 91.875,468.7031 Q92.1094,468.9531 92.1094,469.5625 L92.1094,471.0156 Q92.1094,471.625 91.875,471.8906 Q91.6406,472.1563 91.2656,472.1563 Q90.9219,472.1563 90.7188,471.9531 Q90.5156,471.7656 90.4063,471.25 Q90.3594,470.8906 90.1719,470.7031 Q89.8438,470.3281 89.2344,470.1094 Q88.625,469.8906 88,469.8906 Q87.2344,469.8906 86.5938,470.2188 Q85.9688,470.5469 85.4688,471.2969 Q84.9844,472.0469 84.9844,473.0781 L84.9844,474.1719 Q84.9844,475.4063 85.875,476.2344 Q86.7656,477.0469 88.3594,477.0469 Q89.2969,477.0469 89.9531,476.7969 Q90.3438,476.6406 90.7656,476.2031 Q91.0313,475.9375 91.1719,475.8594 Q91.3281,475.7813 91.5313,475.7813 Q91.8594,475.7813 92.1094,476.0469 Q92.375,476.2969 92.375,476.6406 Q92.375,476.9844 92.0313,477.3906 Q91.5313,477.9688 90.7344,478.2969 Q89.6563,478.75 88.3594,478.75 Q86.8438,478.75 85.6406,478.125 Q84.6563,477.625 83.9688,476.5625 Q83.2813,475.4844 83.2813,474.2031 L83.2813,473.0469 Q83.2813,471.7188 83.8906,470.5781 Q84.5156,469.4219 85.6094,468.8125 Q86.7031,468.1875 87.9375,468.1875 Q88.6719,468.1875 89.3125,468.3594 Q89.9688,468.5156 90.5156,468.875 Z " fill="#000000"/><text fill="#000000" font-family="sans-serif" font-size="14" lengthAdjust="spacing" textLength="74" x="108.25" y="478.7285">Emprestimo</text><line style="stroke:#181818;stroke-width:0.5;" x1="8" x2="250" y1="489" y2="489"/><rect fill="none" height="6" style="stroke:#C82930;stroke-width:1.0;" width="6" x="15" y="500.3047"/><text fill="#000000" font-family="sans-serif" font-size="14" lengthAdjust="spacing" textLength="51" x="27" y="507.5332">id: Long</text><rect fill="none" height="6" style="stroke:#C82930;stroke-width:1.0;" width="6" x="15" y="517.9141"/><text fill="#000000" font-family="sans-serif" font-size="14" lengthAdjust="spacing" textLength="154" x="27" y="525.1426">dataRetirada: LocalDate</text><rect fill="none" height="6" style="stroke:#C82930;stroke-width:1.0;" width="6" x="15" y="535.5234"/><text fill="#000000" font-family="sans-serif" font-size="14" lengthAdjust="spacing" textLength="218" x="27" y="542.752">dataPrevistaDevolucao: LocalDate</text><rect fill="none" height="6" style="stroke:#C82930;stroke-width:1.0;" width="6" x="15" y="553.1328"/><text fill="#000000" font-family="sans-serif" font-size="14" lengthAdjust="spacing" textLength="167" x="27" y="560.3613">dataDevolucao: LocalDate</text><rect fill="none" height="6" style="stroke:#C82930;stroke-width:1.0;" width="6" x="15" y="570.7422"/><text fill="#000000" font-family="sans-serif" font-size="14" lengthAdjust="spacing" textLength="112" x="27" y="577.9707">multa: BigDecimal</text><line style="stroke:#181818;stroke-width:0.5;" x1="8" x2="250" y1="585.0469" y2="585.0469"/><ellipse cx="18" cy="599.3516" fill="#84BE84" rx="3" ry="3" style="stroke:#038048;stroke-width:1.0;"/><text fill="#000000" font-family="sans-serif" font-size="14" lengthAdjust="spacing" textLength="171" x="27" y="603.5801">calcularMulta(): BigDecimal</text><ellipse cx="18" cy="616.9609" fill="#84BE84" rx="3" ry="3" style="stroke:#038048;stroke-width:1.0;"/><text fill="#000000" font-family="sans-serif" font-size="14" lengthAdjust="spacing" textLength="164" x="27" y="621.1895">registrarDevolucao(): void</text><ellipse cx="18" cy="634.5703" fill="#84BE84" rx="3" ry="3" style="stroke:#038048;stroke-width:1.0;"/><text fill="#000000" font-family="sans-serif" font-size="14" lengthAdjust="spacing" textLength="118" x="27" y="638.7988">renovar(): boolean</text></g><!--link Usuario to Reserva--><g id="link_Usuario_Reserva"><path codeLine="78" d="M322.63,133.74 C418.96,162.4 546.19,204.82 653,256 C658.67,258.72 664.4,261.63 670.13,264.68 " fill="none" id="Usuario-Reserva" style="stroke:#181818;stroke-width:1.0;"/><polygon fill="#000000" points="586.6789,218.9388,579.251,212.9993,577.1784,218.4996,586.6789,218.9388" style="stroke:#000000;stroke-width:1.0;"/><text fill="#000000" font-family="sans-serif" font-size="13" lengthAdjust="spacing" textLength="41" x="591" y="222.4951">solicita</text><text fill="#000000" font-family="sans-serif" font-size="13" lengthAdjust="spacing" textLength="7" x="330.4226" y="132.9513">1</text><text fill="#000000" font-family="sans-serif" font-size="13" lengthAdjust="spacing" textLength="20" x="642.4598" y="257.009">0..*</text></g><!--link Reserva to Livro--><g id="link_Reserva_Livro"><path codeLine="79" d="M730.21,427.31 C688.97,488.96 630.7,573.89 576,646 C568.59,655.78 564.4073,661.1821 556.4073,671.1421 " fill="none" id="Reserva-to-Livro" style="stroke:#181818;stroke-width:1.0;"/><polygon fill="#181818" points="552.65,675.82,561.4046,671.3081,555.7811,671.9218,555.1674,666.2983,552.65,675.82" style="stroke:#181818;stroke-width:1.0;"/><polygon fill="#000000" points="710.0978,555.7473,717.7411,550.0877,712.9547,546.676,710.0978,555.7473" style="stroke:#000000;stroke-width:1.0;"/><text fill="#000000" font-family="sans-serif" font-size="13" lengthAdjust="spacing" textLength="41" x="722" y="556.9951">reserva</text><text fill="#000000" font-family="sans-serif" font-size="13" lengthAdjust="spacing" textLength="20" x="704.5562" y="448.8706">0..*</text><text fill="#000000" font-family="sans-serif" font-size="13" lengthAdjust="spacing" textLength="7" x="551.5066" y="665.2682">1</text></g><!--link Usuario to Emprestimo--><g id="link_Usuario_Emprestimo"><path codeLine="80" d="M166.48,178.12 C158.52,257.2 146.66,375.05 138.42,456.91 " fill="none" id="Usuario-Emprestimo" style="stroke:#181818;stroke-width:1.0;"/><polygon fill="#000000" points="168.4993,222.1506,172.3292,213.4453,166.4809,212.8567,168.4993,222.1506" style="stroke:#000000;stroke-width:1.0;"/><text fill="#000000" font-family="sans-serif" font-size="13" lengthAdjust="spacing" textLength="38" x="178" y="222.4951">realiza</text><text fill="#000000" font-family="sans-serif" font-size="13" lengthAdjust="spacing" textLength="7" x="158.447" y="199.6643">1</text><text fill="#000000" font-family="sans-serif" font-size="13" lengthAdjust="spacing" textLength="20" x="118.3738" y="446.249">0..*</text></g><!--link Emprestimo to Copia--><g id="link_Emprestimo_Copia"><path codeLine="81" d="M165.5,646.27 C191.98,707.25 231.74,786.39 281,847 C303.86,875.12 327.6393,897.9047 355.8093,921.1147 " fill="none" id="Emprestimo-to-Copia" style="stroke:#181818;stroke-width:1.0;"/><polygon fill="#181818" points="360.44,924.93,356.0375,916.1199,356.5811,921.7506,350.9504,922.2941,360.44,924.93" style="stroke:#181818;stroke-width:1.0;"/><polygon fill="#000000" points="288.8464,765.7865,286.1135,756.6771,281.281,760.0232,288.8464,765.7865" style="stroke:#000000;stroke-width:1.0;"/><text fill="#000000" font-family="sans-serif" font-size="13" lengthAdjust="spacing" textLength="54" x="295" y="766.9951">empresta</text><text fill="#000000" font-family="sans-serif" font-size="13" lengthAdjust="spacing" textLength="20" x="147.4461" y="667.3298">0..*</text><text fill="#000000" font-family="sans-serif" font-size="13" lengthAdjust="spacing" textLength="7" x="345.4924" y="916.4335">1</text></g><!--reverse link Livro to Copia--><g id="link_Livro_Copia"><path codeLine="83" d="M481,859.16 C481,884.3 481,899.82 481,924.95 " fill="none" id="Livro-backto-Copia" style="stroke:#181818;stroke-width:1.0;"/><polygon fill="#181818" points="481,847.16,477,853.16,481,859.16,485,853.16,481,847.16" style="stroke:#181818;stroke-width:1.0;"/><polygon fill="#000000" points="486,891.1758,488.9389,882.1307,483.0611,882.1307,486,891.1758" style="stroke:#000000;stroke-width:1.0;"/><text fill="#000000" font-family="sans-serif" font-size="13" lengthAdjust="spacing" textLength="38" x="495" y="891.4951">possui</text><text fill="#000000" font-family="sans-serif" font-size="13" lengthAdjust="spacing" textLength="20" x="460.1094" y="914.1171">1..*</text></g><!--reverse link Biblioteca to Copia--><g id="link_Biblioteca_Copia"><path codeLine="84" d="M651.4963,846.9021 C622.9563,874.1221 599.31,896.67 570.04,924.58 " fill="none" id="Biblioteca-backto-Copia" style="stroke:#181818;stroke-width:1.0;"/><polygon fill="none" points="660.18,838.62,653.0774,839.8665,651.4963,846.9021,658.5988,845.6556,660.18,838.62" style="stroke:#181818;stroke-width:1.0;"/><polygon fill="#000000" points="619.3815,889.6264,627.9556,885.5111,623.8992,881.2573,619.3815,889.6264" style="stroke:#000000;stroke-width:1.0;"/><text fill="#000000" font-family="sans-serif" font-size="13" lengthAdjust="spacing" textLength="47" x="632" y="891.4951">mant&#233;m</text><text fill="#000000" font-family="sans-serif" font-size="13" lengthAdjust="spacing" textLength="7" x="645.7593" y="859.7271">1</text><text fill="#000000" font-family="sans-serif" font-size="13" lengthAdjust="spacing" textLength="20" x="556.8325" y="914.0076">0..*</text></g><!--link Autor to Livro--><g id="link_Autor_Livro"><path codeLine="86" d="M313.97,409.66 C348.42,482.01 403.3,597.29 440.68,675.81 " fill="none" id="Autor-Livro" style="stroke:#181818;stroke-width:1.0;"/><polygon fill="#000000" points="430.1493,556.1903,428.9147,546.7602,423.6076,549.2868,430.1493,556.1903" style="stroke:#000000;stroke-width:1.0;"/><text fill="#000000" font-family="sans-serif" font-size="13" lengthAdjust="spacing" textLength="44" x="437" y="556.9951">escreve</text><text fill="#000000" font-family="sans-serif" font-size="13" lengthAdjust="spacing" textLength="20" x="296.2357" y="431.0248">1..*</text><text fill="#000000" font-family="sans-serif" font-size="13" lengthAdjust="spacing" textLength="20" x="416.3556" y="665.2573">1..*</text></g><!--link Editora to Livro--><g id="link_Editora_Livro"><path codeLine="87" d="M518.77,409.66 C510.98,482.01 498.57,597.29 490.12,675.81 " fill="none" id="Editora-Livro" style="stroke:#181818;stroke-width:1.0;"/><polygon fill="#000000" points="516.4649,556.6471,520.355,547.9685,514.5109,547.3394,516.4649,556.6471" style="stroke:#000000;stroke-width:1.0;"/><text fill="#000000" font-family="sans-serif" font-size="13" lengthAdjust="spacing" textLength="41" x="526" y="556.9951">publica</text><text fill="#000000" font-family="sans-serif" font-size="13" lengthAdjust="spacing" textLength="7" x="510.6635" y="431.0248">1</text><text fill="#000000" font-family="sans-serif" font-size="13" lengthAdjust="spacing" textLength="20" x="470.0444" y="665.2573">0..*</text></g><!--SRC=[ZLHBRXin3DtFAGIlqWGEcksWC93MtgLjqBG7e3MqmK8I1v9cKBJeWNgENgpwp4-EZNet8jyyFb9Fb0gS4zzS1vPO_Ag4M0jgQl74vfWEXZNMuiLR6W8QmhVi51HHr42gY7XKU62p_FbEM0H5Fy5-GOUsXvidwYs_gSLmJXZ9ndNAWztfrgBpfDdT1CmJEVzkZcsgtrKba_p4Sawy9zyfBcIHsviY08QVkxqY2H82b8nFOGaUZsm92lsJjYsvbWtjIL433KPz-SyxiU-S1Fk1Mu81rQEAW1IQLQVZETMI6pgMgfq7txaYf5YcMIRL2uaQR2glUPWLD12hzqpD2Q2KDm5wj7G8ypZNv9vP8PYvY_SKPiSU9Lpb7ZGDMfJyVwl8eDjvEqnoSaeUOd4NZp9uXoUB9CJ27O-TPtkLE0EIs43kjiWquE4JE4aQZUV84OQ_3HP9IbGe2_Rpti9irAHteMBNK91ntP2aQR-NWLD5OytHkOoNAmzlwrpbsDOB1mRosKTJNrz3fnDazwCbUmdmofhnwen41RPm5IQICXQky41MnttWGp8RTNxYY-bDiKjjZ0pbtUJSiyK-ZckBFQkkx6C2NKpgQB8w6FsunM00K4EFAYv1-p5ce-oJlCKZ9VjEl4Nd5WttUHgB9pNkuTN3IgpNOlNs_lvsDLrWBTnmLs9JZS41irvlqbzv5TQ1FwSt5pWN0wt7hHp0Y_09STvMTLZqUQa4S9MBtKRMXmGUGIqxrr60BBP39E5Pm0ZLOFpVFphIvOSwKCsaOqlePBX7Z2g7jrIsDEBQ_2O2xXy0]--></g></svg>